# xmcd
#
# Track frame offsets: 
#        150
#        12614
#        23234
#        35524
#        45320
#        57707
#        68001
#        78125
#        88595
#        102801
#        113786
#        125900
#        135947
#        147577
#        155282
#        166782
#        178919
#        191209
#        202295
#        216221
#        225282
#        235617
#        249787
#        260502
#        273352
#        284335
#
# Disc length: 3921 seconds
#
# Revision: 0
# Processed by: cddbd v1.5.2PL0 Copyright (c) Steve Scherf et al.
# Submitted via: ExactAudioCopy v0.95b4
#
DISCID=700f4f1a
DTITLE=Various Artist - The Best of Chief Records Volume 3
DYEAR=1900
DGENRE=Blues
TTITLE0=Tobin Matthews/Ruby Duby Du
TTITLE1=Junior Wells/Come On In This House
TTITLE2=Elmore James/Cry For My Baby
TTITLE3=The Elites/Jack the Ripper
TTITLE4=Mel London/Doggin' Me Round
TTITLE5=Elmore James/Elmore's DContribution to Jazz
TTITLE6=Frank Butler/I Can't Believe It
TTITLE7=Melvin Simpson/Try and Understaqnd
TTITLE8=Junior Wells/I Could Cry
TTITLE9=Tobin Matthews/Irish Washerwoman
TTITLE10=The Elites/The Blues
TTITLE11=Earl Hooker/Blues in "D" Natural
TTITLE12=Juniorn Wells/I'm a Stranger
TTITLE13=The Elites/MamaLook At Me
TTITLE14=Frank Butler/Girl of My Dreams
TTITLE15=Magic Sam/You Don't Have tgo Work
TTITLE16=Magidc Sam/My Love Is Your Love
TTITLE17=Melvin Simpson/I Love My Baby
TTITLE18=Elmore James/The Twelve Year Old Boy
TTITLE19=Tobin Matthews/Leather Jacket Cowboy
TTITLE20=Junior Wells/The Things I'd Do For You
TTITLE21=Magic Sam/Mr. Charlie
TTITLE22=Tobin Matthews/Steel Guitar Rag
TTITLE23=The Five Duchess/Cry For Me Baby
TTITLE24=The Labradors/When Someone Loves You
TTITLE25=Junior Wells/So Tired
EXTD=
EXTT0=
EXTT1=
EXTT2=
EXTT3=
EXTT4=
EXTT5=
EXTT6=
EXTT7=
EXTT8=
EXTT9=
EXTT10=
EXTT11=
EXTT12=
EXTT13=
EXTT14=
EXTT15=
EXTT16=
EXTT17=
EXTT18=
EXTT19=
EXTT20=
EXTT21=
EXTT22=
EXTT23=
EXTT24=
EXTT25=
PLAYORDER=
